<?xml version="1.0" encoding="iso-8859-1"?>
<!-- Uploaded to: SVG Repo, www.svgrepo.com, Generator: SVG Repo Mixer Tools -->
<!DOCTYPE svg PUBLIC "-//W3C//DTD SVG 1.1//EN" "http://www.w3.org/Graphics/SVG/1.1/DTD/svg11.dtd">
<svg fill="#5573D7" version="1.1" id="Capa_1"
	xmlns="http://www.w3.org/2000/svg"
	xmlns:xlink="http://www.w3.org/1999/xlink" width="800px" height="800px" viewBox="0 0 442.451 442.45" xml:space="preserve">
	<g>
		<g>
			<g>
				<path d="M285.706,281.258c-11.651,0-22.351,6.813-27.253,17.358c-3.382,7.273-3.712,15.472-0.928,23.081
				c2.755,7.528,8.211,13.504,15.364,16.819c3.92,1.817,8.114,2.738,12.463,2.738c11.742,0,22.502-6.791,27.412-17.3
				c7-14.989,0.502-32.891-14.484-39.901C294.313,282.199,290.083,281.258,285.706,281.258z"/>
				<path d="M424.767,245.014c-2.089-36.24-26.109-67.484-58.695-81.352c-6.082,7.539-12.459,15.23-19.06,22.979
				c26.895,7.798,48.193,32.106,49.801,59.982c1.001,17.376-3.944,34.752-16.034,56.339
				c-23.034,41.119-83.062,82.745-153.223,82.739c-16.754,0-33.311-2.438-49.212-7.246c-3.142-0.951-6.238-1.979-9.296-3.068
				c-0.44,0.521-0.898,1.033-1.385,1.521c-4.438,4.438-10.287,6.957-16.54,7.156l-8.029,11.092
				c8.739,3.897,17.801,7.276,27.146,10.104c18.531,5.604,37.814,8.443,57.314,8.445c0.005,0,0.008,0,0.012,0
				c36.907,0,73.971-10.063,107.181-29.103c30.771-17.641,55.797-41.773,70.463-67.956
				C414.427,300.186,426.485,274.85,424.767,245.014z"/>
				<path d="M126.133,218.381c-3.973-1.895-8.238-2.854-12.679-2.854c-11.646,0-22.368,6.712-27.316,17.102
				c-3.399,7.137-3.764,15.26-1.026,22.867c2.752,7.646,8.248,13.713,15.478,17.077c4.045,1.883,8.342,2.838,12.772,2.838
				c11.546,0,22.176-6.72,27.083-17.117C147.472,243.402,141.051,225.496,126.133,218.381z"/>
				<path d="M203.412,132.027c3.385-14.821,0.202-29.493-8.735-40.254c-8.578-10.326-21.285-16.014-35.781-16.014
				c-14.061,0-28.286,5.385-40.057,15.161c-11.091,9.214-18.836,21.449-21.808,34.453c-3.385,14.822-0.202,29.494,8.735,40.254
				c8.579,10.327,21.286,16.014,35.781,16.014c14.061,0,28.286-5.384,40.056-15.161C192.696,157.267,200.44,145.032,203.412,132.027
				z M166.896,148.774c-7.646,6.352-16.648,9.85-25.348,9.85c-7.528,0-13.948-2.736-18.075-7.704
				c-4.319-5.2-5.777-12.643-4.001-20.419c1.852-8.104,6.851-15.872,14.075-21.874c7.647-6.352,16.649-9.85,25.349-9.85
				c7.529,0,13.948,2.736,18.074,7.703c4.319,5.201,5.778,12.644,4.001,20.421C179.121,135.004,174.121,142.772,166.896,148.774z"/>
				<path d="M69.651,341.619l22.88-16.563c0.002-0.036,0.009-0.073,0.011-0.109c-27.551-30.188-44.468-69.118-46.771-111.856
				c-1.647-30.523,4.916-59.118,21.946-95.589c17.657-35.467,51.106-65.504,91.795-82.421c11.461-4.766,22.07-7.082,32.437-7.082
				c8.895,0,17.335,1.708,25.802,5.22c17.896,7.423,33.354,23.496,40.343,41.946c4.22,11.14,7.283,28.454-2.083,47.677
				c-3.906,8.022-5.842,18.076-5.448,28.311c0.157,4.114,0.843,7.998,1.987,11.603c9.008-8.301,18.22-16.55,27.438-24.574
				c0.346-1.111,0.742-2.148,1.195-3.077c10.878-22.325,11.948-46.481,3.095-69.856c-9.775-25.813-30.637-47.454-55.8-57.892
				C216.71,2.475,204.419,0,191.949,0c-13.931,0-28.46,3.105-43.186,9.228c-46.892,19.493-85.6,54.474-106.198,95.969l-0.143,0.296
				c-19.165,40.998-26.525,73.628-24.61,109.104c2.373,44.036,17.995,85.233,45.177,119.137
				C65.144,336.422,67.37,339.045,69.651,341.619z"/>
				<path d="M74.598,432.307c0.575,0.576,1.152,1.166,1.729,1.756c0.591,0.605,1.181,1.209,1.769,1.798c0,0.002,0,0.002,0,0.002
				s0.001,0,0.002-0.002c3.215,3.217,6.954,6.59,11.037,6.59c0.326,0,0.653-0.021,0.983-0.064c2.731-0.371,4.57-2.358,7.052-5.643
				l50.69-66.756c3.976,0.998,8.358-0.037,11.464-3.144c2.838-2.838,3.95-6.75,3.36-10.438c3.69,0.59,7.603-0.523,10.44-3.361
				c3.684-3.684,4.468-9.17,2.382-13.637c15.537-11.912,82.025-76.046,97.604-91.621c68.224-68.222,147.06-167.221,134.621-179.657
				c-12.435-12.435-111.433,66.4-179.655,134.623c-15.576,15.576-79.708,82.065-91.622,97.603
				c-4.466-2.086-9.953-1.301-13.636,2.384c-2.839,2.839-3.951,6.751-3.361,10.44c-3.69-0.592-7.602,0.521-10.44,3.359
				c-2.778,2.779-3.907,6.586-3.401,10.206l-66.888,51.829c-3.363,2.53-5.095,5.149-5.294,8.004
				c-0.271,3.871,2.379,7.092,5.282,9.996 M87.587,422.693c-0.555-0.568-1.112-1.138-1.676-1.701l-31.279-31.279
				c-0.583-0.582-1.162-1.145-1.707-1.666l51.745-40.904l5.683,5.685L96.35,370.813c-1.521,1.954-1.383,4.729,0.326,6.521
				c0.975,1.021,2.293,1.551,3.622,1.551c1,0,2.006-0.299,2.875-0.91l18.975-13.354l5.738,5.736L87.587,422.693z"/>
			</g>
		</g>
	</g>
</svg>